<svg width="10" height="12" viewBox="0 0 10 12" fill="none" xmlns="http://www.w3.org/2000/svg">
<path d="M1.302 1.646C1.707 1.677 1.6685 2.052 1.2865 2.1225C0.652 2.2395 0.373 2.5795 0.373 2.894C0.373 3.1585 0.571 3.405 0.922 3.4845C1.3405 3.579 1.254 3.863 0.9065 3.8905C0.3405 3.9355 0.0625 4.2725 0.0625 4.5955C0.0625 4.878 0.275 5.1495 0.693 5.2055C1.1215 5.263 0.981999 5.5725 0.6775 5.6665C0.417 5.7465 0.000499725 5.9165 0.000499725 6.4215C0.000499725 6.7575 0.2505 7.2025 1.136 7.1665C1.75 7.1415 2.9695 7.2655 3.6255 7.609C3.172 9.4375 3.281 12 4.469 12C5.266 12 5.417 11.0965 5.6565 10.2655C6.5155 7.281 8.2345 6.7345 10 6.464L10 1.5C6.656 1.5 5.75 0 3.2475 0C1.648 0 0.8215 0.8675 0.8215 1.333C0.822 1.5 0.958 1.619 1.302 1.646Z" fill="#999999"/>
</svg>
