<svg width="20" height="20" viewBox="0 0 20 20" fill="none" xmlns="http://www.w3.org/2000/svg">
<path d="M0.00500488 10.002C0.00500488 4.485 4.485 0.00500488 10.002 0.00500488C15.52 0.00500488 20 4.485 20 10.002C20 15.52 15.52 20 10.002 20C4.485 20 0.00500488 15.52 0.00500488 10.002ZM6.215 11.526C6.215 11.526 7.72001 13.027 9.474 14.78C9.62101 14.927 9.812 15 10.004 15C10.196 15 10.388 14.927 10.535 14.78C12.288 13.028 13.793 11.526 13.793 11.526C13.938 11.381 14.01 11.191 14.009 11C14.009 10.808 13.935 10.616 13.789 10.47C13.496 10.177 13.023 10.175 12.732 10.466L10.754 12.443V5.75C10.754 5.336 10.418 5 10.004 5C9.59 5 9.254 5.336 9.254 5.75V12.443L7.276 10.465C6.987 10.176 6.514 10.178 6.221 10.471C6.075 10.618 6.001 10.81 6 11.001C5.999 11.192 6.071 11.381 6.215 11.526Z" fill="#7176FF"/>
</svg>
