<svg width="10" height="12" viewBox="0 0 10 12" fill="none" xmlns="http://www.w3.org/2000/svg">
<path d="M8.698 10.354C8.293 10.323 8.3315 9.948 8.7135 9.8775C9.348 9.7605 9.627 9.4205 9.627 9.106C9.627 8.8415 9.429 8.595 9.078 8.5155C8.6595 8.421 8.746 8.137 9.0935 8.1095C9.6595 8.0645 9.9375 7.7275 9.9375 7.4045C9.9375 7.122 9.725 6.8505 9.307 6.7945C8.8785 6.737 9.018 6.4275 9.3225 6.3335C9.583 6.2535 9.9995 6.0835 9.9995 5.5785C9.9995 5.2425 9.7495 4.7975 8.864 4.8335C8.25 4.8585 7.0305 4.7345 6.3745 4.391C6.828 2.5625 6.719 0 5.531 0C4.734 0 4.583 0.9035 4.3435 1.7345C3.4845 4.719 1.7655 5.2655 0 5.536V10.5C3.344 10.5 4.25 12 6.7525 12C8.352 12 9.1785 11.1325 9.1785 10.667C9.178 10.5 9.042 10.381 8.698 10.354Z" fill="white"/>
</svg>
