<svg width="10" height="10" viewBox="0 0 10 10" fill="none" xmlns="http://www.w3.org/2000/svg">
<path d="M2.617 0.502014C1.291 0.502014 0 1.41651 0 3.09051C0 4.95301 2.1725 6.95401 4.6515 9.36051C4.7485 9.45501 4.8745 9.50201 5 9.50201C5.1255 9.50201 5.2515 9.45501 5.3485 9.36051C7.837 6.94501 10 4.95351 10 3.09051C10 1.41401 8.71 0.506514 7.3855 0.506514C6.4675 0.506514 5.5625 0.939514 5 1.78351C4.435 0.935514 3.5325 0.502014 2.617 0.502014ZM2.617 1.25201C3.612 1.25251 4.218 1.92851 4.6945 2.60201C4.7645 2.70101 4.8785 2.76001 5 2.76051C5.1215 2.76051 5.2355 2.70201 5.306 2.60351C5.7835 1.93401 6.401 1.25651 7.3855 1.25651C8.2835 1.25651 9.25 1.83051 9.25 3.09051C9.25 4.42601 7.8095 5.92701 5 8.65401C2.273 6.01151 0.75 4.45951 0.75 3.09051C0.75 2.52801 0.9445 2.05601 1.312 1.72701C1.6485 1.42501 2.1245 1.25201 2.617 1.25201Z" fill="black"/>
</svg>
